<svg width="112" height="112" viewBox="0 0 112 112" fill="none" xmlns="http://www.w3.org/2000/svg">
<path d="M111.8 55.8984C111.8 86.7703 86.7727 111.797 55.9 111.797C25.0273 111.797 0 86.7703 0 55.8984C0 25.0266 25.0273 0 55.9 0C86.7727 0 111.8 25.0266 111.8 55.8984ZM1.46883 55.8984C1.46883 85.9591 25.8385 110.328 55.9 110.328C85.9615 110.328 110.331 85.9591 110.331 55.8984C110.331 25.8378 85.9615 1.46878 55.9 1.46878C25.8385 1.46878 1.46883 25.8378 1.46883 55.8984Z" fill="#797979"/>
<path fill-rule="evenodd" clip-rule="evenodd" d="M45.7994 67.2676C38.9206 63.5533 27.2408 59.359 13.0257 62.6515C12.6713 62.734 12.5047 62.2327 12.8349 62.0798C16.1728 60.5543 23.1123 58.1087 33.8258 57.7816C34.056 57.7755 34.1923 57.5187 34.0742 57.32C32.8898 55.3695 28.307 47.3448 28.4069 40.3227C28.413 40.0017 28.8401 39.9069 28.9764 40.1973C30.1971 42.7897 33.7864 49.289 41.1772 54.6083C41.2226 54.642 41.2589 54.6878 41.2802 54.7398C42.9461 58.8515 44.4545 63.0336 45.7994 67.2676Z" fill="#1AA100"/>
<path fill-rule="evenodd" clip-rule="evenodd" d="M56.1196 53.5689C56.1196 53.5689 48.2896 33.5359 29.5917 25.3736C29.2736 25.236 28.9768 25.6029 29.1736 25.8902C33.0296 31.4908 51.8093 60.6552 55.7773 103.047C55.8167 103.466 56.4225 103.466 56.4618 103.047C60.4298 60.6552 79.2096 31.4908 83.0655 25.8902C83.2623 25.6029 82.9625 25.236 82.6475 25.3736C63.9525 33.5359 56.1196 53.5689 56.1196 53.5689Z" fill="#F18F1D"/>
<path fill-rule="evenodd" clip-rule="evenodd" d="M66.4424 67.2677C73.2394 63.5992 84.7254 59.4569 98.7163 62.5384C99.1313 62.6301 99.3221 62.037 98.9313 61.8689C95.4419 60.3434 88.6812 58.1087 78.5038 57.7877C78.2342 57.7785 78.0767 57.482 78.2161 57.2497C79.4549 55.1953 83.8409 47.4273 83.8379 40.5459C83.8379 40.1699 83.3351 40.0537 83.1715 40.39C81.869 43.1016 78.2767 49.4083 71.0798 54.5931C71.0252 54.6328 70.9828 54.6848 70.9586 54.749C69.2927 58.8607 67.7842 63.0367 66.4424 67.2677Z" fill="#1AA100"/>
<path fill-rule="evenodd" clip-rule="evenodd" d="M56.1193 18.9844C61.8047 18.9844 66.4148 23.6372 66.4148 29.3753C66.4148 35.1135 61.8047 39.7663 56.1193 39.7663C50.4339 39.7663 45.8237 35.1135 45.8237 29.3753C45.8237 23.6372 50.4339 18.9844 56.1193 18.9844Z" fill="#F18F1D"/>
<path fill-rule="evenodd" clip-rule="evenodd" d="M22.5186 45.2109C25.5628 45.2109 28.0314 47.7024 28.0314 50.7748C28.0314 53.8471 25.5628 56.3387 22.5186 56.3387C19.4745 56.3387 17.0059 53.8471 17.0059 50.7748C17.0059 47.7024 19.4745 45.2109 22.5186 45.2109Z" fill="#1AA100"/>
<path fill-rule="evenodd" clip-rule="evenodd" d="M89.7232 45.2109C86.6791 45.2109 84.2104 47.7024 84.2104 50.7748C84.2104 53.8471 86.6791 56.3387 89.7232 56.3387C92.7673 56.3387 95.236 53.8471 95.236 50.7748C95.236 47.7024 92.7673 45.2109 89.7232 45.2109Z" fill="#1AA100"/>
</svg>
